<svg xmlns="http://www.w3.org/2000/svg" xmlns:xlink="http://www.w3.org/1999/xlink" width="500" zoomAndPan="magnify" viewBox="0 0 375 374.999991" height="500" preserveAspectRatio="xMidYMid meet" version="1.0"><defs><g/><clipPath id="4b97d1ff92"><path d="M 0 121.25 L 102 121.25 L 102 223.726562 L 0 223.726562 Z M 0 121.25 " clip-rule="nonzero"/></clipPath><clipPath id="28ccd5ef31"><path d="M 67.328125 151 L 151.167969 151 L 151.167969 253.378906 L 67.328125 253.378906 Z M 67.328125 151 " clip-rule="nonzero"/></clipPath><clipPath id="c85d72d88a"><path d="M 73.539062 158 L 146.734375 158 L 146.734375 245.242188 L 73.539062 245.242188 Z M 73.539062 158 " clip-rule="nonzero"/></clipPath></defs><g clip-path="url(#4b97d1ff92)"><path fill="#4d4d4d" d="M 7.644531 211.105469 L 40.230469 211.105469 C 40.953125 211.09375 41.542969 211.671875 41.542969 212.398438 C 41.542969 213.121094 40.953125 213.699219 40.230469 213.691406 L 7.644531 213.691406 C 6.929688 213.699219 6.339844 213.121094 6.339844 212.398438 C 6.339844 211.671875 6.929688 211.09375 7.644531 211.105469 Z M 7.644531 205.132812 L 43.46875 205.132812 C 44.191406 205.125 44.78125 205.710938 44.78125 206.425781 C 44.78125 207.140625 44.191406 207.730469 43.46875 207.71875 L 7.644531 207.71875 C 6.929688 207.730469 6.339844 207.140625 6.339844 206.425781 C 6.339844 205.710938 6.929688 205.125 7.644531 205.132812 Z M 67.75 203.214844 C 68.898438 203.214844 70.03125 203.511719 71.035156 204.054688 C 72.011719 203.523438 73.140625 203.214844 74.328125 203.214844 C 78.117188 203.214844 81.21875 206.316406 81.21875 210.109375 C 81.21875 213.898438 78.117188 217 74.328125 217 C 73.132812 217 72.011719 216.703125 71.035156 216.160156 C 70.03125 216.710938 68.898438 217 67.75 217 C 63.949219 217 60.847656 213.898438 60.847656 210.109375 C 60.847656 206.316406 63.949219 203.214844 67.75 203.214844 Z M 7.554688 182.871094 L 19.496094 182.871094 C 20.210938 182.871094 20.789062 183.449219 20.789062 184.171875 L 20.789062 196.105469 C 20.789062 196.820312 20.210938 197.398438 19.496094 197.398438 L 7.554688 197.398438 C 6.847656 197.398438 6.269531 196.820312 6.269531 196.105469 L 6.269531 184.171875 C 6.269531 183.449219 6.847656 182.871094 7.554688 182.871094 Z M 6.414062 170.238281 C 2.875 170.238281 0 173.117188 0 176.644531 L 0 217.199219 C 0 220.738281 2.875 223.613281 6.414062 223.613281 L 81.808594 223.613281 C 85.335938 223.613281 88.222656 220.738281 88.222656 217.199219 L 88.222656 176.644531 C 88.222656 173.117188 85.335938 170.238281 81.808594 170.238281 Z M 88.929688 137.863281 L 33.191406 167.28125 L 82.792969 167.28125 C 86.324219 167.28125 90.539062 170.808594 90.539062 173.515625 L 90.539062 173.703125 L 98.488281 169.652344 C 101.628906 168.042969 102.804688 164.105469 101.148438 160.996094 Z M 76.597656 121.714844 C 75.558594 121.695312 74.507812 121.941406 73.539062 122.457031 L 6.867188 157.648438 C 3.746094 159.292969 2.542969 163.183594 4.1875 166.304688 L 4.695312 167.253906 L 10.957031 167.253906 L 84.0625 128.664062 L 82.195312 125.132812 C 81.066406 122.980469 78.867188 121.75 76.597656 121.714844 " fill-opacity="1" fill-rule="nonzero"/></g><g clip-path="url(#28ccd5ef31)"><path fill="#ffffff" d="M 109.730469 253.238281 C 108.945312 253.238281 108.15625 253.007812 107.476562 252.535156 C 70.441406 226.898438 67.492188 201.945312 67.492188 171.988281 C 67.492188 170.085938 68.84375 168.453125 70.707031 168.101562 C 90.816406 164.257812 107.257812 152.617188 107.421875 152.5 C 108.800781 151.511719 110.65625 151.511719 112.03125 152.5 C 112.195312 152.613281 128.640625 164.257812 148.746094 168.101562 C 150.613281 168.457031 151.960938 170.085938 151.960938 171.988281 C 151.960938 201.945312 149.015625 226.898438 111.976562 252.535156 C 111.308594 253.007812 110.515625 253.238281 109.730469 253.238281 Z M 75.425781 175.199219 C 75.632812 202.316406 79.039062 222.378906 109.730469 244.4375 C 140.425781 222.378906 143.828125 202.316406 144.039062 175.199219 C 127.980469 171.492188 114.863281 163.796875 109.730469 160.484375 C 104.59375 163.796875 91.480469 171.488281 75.425781 175.199219 Z M 75.425781 175.199219 " fill-opacity="1" fill-rule="nonzero"/></g><path fill="#ffffff" d="M 139.375 178.503906 C 126.210938 174.910156 115.269531 168.957031 109.917969 165.722656 C 109.804688 165.652344 109.664062 165.652344 109.542969 165.722656 C 104.191406 168.957031 93.246094 174.910156 80.089844 178.503906 C 79.929688 178.550781 79.816406 178.695312 79.820312 178.863281 C 80.234375 199.699219 82.753906 218.589844 109.511719 238.875 C 109.574219 238.921875 109.652344 238.949219 109.730469 238.949219 C 109.8125 238.949219 109.882812 238.921875 109.953125 238.875 C 136.710938 218.589844 139.230469 199.695312 139.640625 178.863281 C 139.644531 178.695312 139.53125 178.550781 139.375 178.503906 Z M 131.367188 194.035156 L 111.671875 213.734375 C 110.816406 214.582031 109.707031 215.011719 108.589844 215.011719 C 107.484375 215.011719 106.382812 214.597656 105.535156 213.757812 L 94.085938 202.527344 C 92.367188 200.84375 92.339844 198.085938 94.027344 196.367188 C 95.710938 194.648438 98.472656 194.621094 100.191406 196.308594 L 108.558594 204.515625 L 125.199219 187.871094 C 126.902344 186.167969 129.664062 186.167969 131.367188 187.871094 C 133.070312 189.570312 133.070312 192.332031 131.367188 194.035156 Z M 131.367188 194.035156 " fill-opacity="1" fill-rule="nonzero"/><g clip-path="url(#c85d72d88a)"><path fill="#8c52ff" d="M 109.957031 245.300781 C 109.28125 245.300781 108.605469 245.101562 108.023438 244.695312 C 76.210938 222.675781 73.679688 201.242188 73.679688 175.511719 C 73.679688 173.878906 74.839844 172.476562 76.441406 172.175781 C 93.710938 168.875 107.835938 158.875 107.976562 158.773438 C 109.15625 157.925781 110.753906 157.925781 111.933594 158.773438 C 112.074219 158.875 126.199219 168.875 143.46875 172.175781 C 145.070312 172.480469 146.230469 173.878906 146.230469 175.511719 C 146.230469 201.242188 143.699219 222.675781 111.886719 244.695312 C 111.3125 245.101562 110.632812 245.300781 109.957031 245.300781 Z M 80.492188 178.269531 C 80.671875 201.5625 83.59375 218.792969 109.957031 237.742188 C 136.320312 218.792969 139.242188 201.5625 139.425781 178.269531 C 125.632812 175.089844 114.367188 168.476562 109.957031 165.632812 C 105.546875 168.476562 94.28125 175.085938 80.492188 178.269531 Z M 80.492188 178.269531 " fill-opacity="1" fill-rule="nonzero"/></g><path fill="#8c52ff" d="M 135.417969 181.109375 C 124.113281 178.023438 114.714844 172.910156 110.121094 170.132812 C 110.019531 170.070312 109.898438 170.070312 109.796875 170.132812 C 105.199219 172.910156 95.800781 178.023438 84.496094 181.109375 C 84.359375 181.148438 84.265625 181.273438 84.269531 181.417969 C 84.621094 199.3125 86.785156 215.539062 109.769531 232.964844 C 109.824219 233.003906 109.890625 233.023438 109.957031 233.023438 C 110.027344 233.023438 110.089844 233.003906 110.148438 232.964844 C 133.128906 215.539062 135.292969 199.308594 135.648438 181.417969 C 135.652344 181.273438 135.554688 181.148438 135.417969 181.109375 Z M 128.542969 194.449219 L 111.625 211.367188 C 110.890625 212.097656 109.9375 212.46875 108.976562 212.46875 C 108.027344 212.46875 107.082031 212.109375 106.351562 211.390625 L 96.519531 201.742188 C 95.042969 200.296875 95.019531 197.925781 96.46875 196.453125 C 97.917969 194.976562 100.289062 194.953125 101.765625 196.402344 L 108.949219 203.449219 L 123.242188 189.15625 C 124.707031 187.691406 127.078125 187.691406 128.542969 189.15625 C 130.003906 190.617188 130.003906 192.988281 128.542969 194.449219 Z M 128.542969 194.449219 " fill-opacity="1" fill-rule="nonzero"/><g fill="#4d4d4d" fill-opacity="1"><g transform="translate(160.326797, 204.876355)"><g><path d="M 2.5625 -35.78125 L 2.5625 0 L 26.328125 0 L 26.328125 -8.4375 L 11.296875 -8.4375 L 11.296875 -35.78125 Z M 2.5625 -35.78125 "/></g></g></g><g fill="#4d4d4d" fill-opacity="1"><g transform="translate(188.492765, 204.876355)"><g><path d="M 10.484375 -17.84375 C 10.484375 -24.640625 15.390625 -28.015625 20.296875 -28.015625 C 24.390625 -28.015625 28.53125 -25.671875 29.703125 -20.90625 L 38.546875 -20.90625 C 37.421875 -30.109375 29.5 -36.34375 20.296875 -36.34375 C 10.078125 -36.34375 1.796875 -28.375 1.796875 -17.84375 C 1.796875 -7.3125 10.078125 0.515625 20.296875 0.515625 C 29.59375 0.515625 37.265625 -5.671875 38.59375 -15.03125 L 29.75 -15.03125 C 28.625 -10.171875 24.484375 -7.71875 20.296875 -7.71875 C 15.390625 -7.71875 10.484375 -11.09375 10.484375 -17.84375 Z M 10.484375 -17.84375 "/></g></g></g><g fill="#4d4d4d" fill-opacity="1"><g transform="translate(228.722565, 204.876355)"><g><path d="M 10.984375 -6.03125 L 2.8125 -6.03125 L -1.84375 5.71875 L 5.828125 5.71875 L 10.984375 -3.578125 Z M 10.984375 -6.03125 "/></g></g></g><g fill="#4d4d4d" fill-opacity="1"><g transform="translate(243.291171, 204.876355)"><g/></g></g><g fill="#4d4d4d" fill-opacity="1"><g transform="translate(256.121759, 204.876355)"><g><path d="M 22.796875 0 L 22.796875 -7.828125 L 16.875 -7.828125 L 16.875 -28.015625 L 22.796875 -28.015625 L 22.796875 -35.984375 L 2.203125 -35.984375 L 2.203125 -28.015625 L 8.125 -28.015625 L 8.125 -7.828125 L 2.203125 -7.828125 L 2.203125 0 Z M 22.796875 0 "/></g></g></g><g fill="#4d4d4d" fill-opacity="1"><g transform="translate(280.862836, 204.876355)"><g><path d="M 21.671875 -35.78125 L 21.671875 -17.890625 L 9.3125 -35.78125 L 2.5625 -35.78125 L 2.5625 0 L 11.25 0 L 11.25 -17.4375 L 23.46875 0 L 30.3125 0 L 30.3125 -35.78125 Z M 21.671875 -35.78125 "/></g></g></g><g fill="#4d4d4d" fill-opacity="1"><g transform="translate(313.885006, 204.876355)"><g><path d="M 10.484375 -17.84375 C 10.484375 -24.640625 15.390625 -28.015625 20.296875 -28.015625 C 24.390625 -28.015625 28.53125 -25.671875 29.703125 -20.90625 L 38.546875 -20.90625 C 37.421875 -30.109375 29.5 -36.34375 20.296875 -36.34375 C 10.078125 -36.34375 1.796875 -28.375 1.796875 -17.84375 C 1.796875 -7.3125 10.078125 0.515625 20.296875 0.515625 C 29.59375 0.515625 37.265625 -5.671875 38.59375 -15.03125 L 29.75 -15.03125 C 28.625 -10.171875 24.484375 -7.71875 20.296875 -7.71875 C 15.390625 -7.71875 10.484375 -11.09375 10.484375 -17.84375 Z M 10.484375 -17.84375 "/></g></g></g><g fill="#4d4d4d" fill-opacity="1"><g transform="translate(354.114806, 204.876355)"><g><path d="M 4.390625 -8.953125 C 1.84375 -8.953125 -0.203125 -7.109375 -0.203125 -4.390625 C -0.203125 -2.140625 1.84375 0.15625 4.390625 0.15625 C 7.15625 0.15625 9.15625 -2.140625 9.15625 -4.390625 C 9.15625 -7.109375 7.15625 -8.953125 4.390625 -8.953125 Z M 4.390625 -8.953125 "/></g></g></g></svg>